<mxfile host="Electron" agent="Mozilla/5.0 (X11; Linux x86_64) AppleWebKit/537.36 (KHTML, like Gecko) draw.io/24.7.17 Chrome/128.0.6613.36 Electron/32.0.1 Safari/537.36" version="24.7.17">
  <diagram name="Page-1" id="oAn4l8IlmO9DXcvYBvXZ">
    <mxGraphModel dx="233" dy="419" grid="1" gridSize="10" guides="1" tooltips="1" connect="1" arrows="1" fold="1" page="1" pageScale="1" pageWidth="1169" pageHeight="827" math="1" shadow="0">
      <root>
        <mxCell id="0" />
        <mxCell id="1" parent="0" />
        <mxCell id="-SVIE4Chyfj7H1_he72M-1" value="$$\text{B}$$" style="rounded=0;whiteSpace=wrap;html=1;" parent="1" vertex="1">
          <mxGeometry x="270" y="240" width="70" height="110" as="geometry" />
        </mxCell>
        <mxCell id="jOhEWSTDvMmX5hS_NLos-1" value="" style="endArrow=none;html=1;rounded=0;shape=link;exitX=1;exitY=0.25;exitDx=0;exitDy=0;" edge="1" parent="1">
          <mxGeometry width="50" height="50" relative="1" as="geometry">
            <mxPoint x="340" y="264.75" as="sourcePoint" />
            <mxPoint x="400" y="265.25" as="targetPoint" />
          </mxGeometry>
        </mxCell>
        <mxCell id="jOhEWSTDvMmX5hS_NLos-2" value="" style="endArrow=none;html=1;rounded=0;shape=link;exitX=1;exitY=0.25;exitDx=0;exitDy=0;entryX=0;entryY=0.5;entryDx=0;entryDy=0;" edge="1" parent="1" target="jOhEWSTDvMmX5hS_NLos-9">
          <mxGeometry width="50" height="50" relative="1" as="geometry">
            <mxPoint x="340" y="324.71" as="sourcePoint" />
            <mxPoint x="420" y="324.71" as="targetPoint" />
          </mxGeometry>
        </mxCell>
        <mxCell id="jOhEWSTDvMmX5hS_NLos-3" value="" style="ellipse;whiteSpace=wrap;html=1;aspect=fixed;fillStyle=solid;fillColor=#000000;" vertex="1" parent="1">
          <mxGeometry x="400" y="260" width="10" height="10" as="geometry" />
        </mxCell>
        <mxCell id="jOhEWSTDvMmX5hS_NLos-10" style="edgeStyle=orthogonalEdgeStyle;rounded=0;orthogonalLoop=1;jettySize=auto;html=1;exitX=1;exitY=0.5;exitDx=0;exitDy=0;entryX=0;entryY=0.5;entryDx=0;entryDy=0;endArrow=none;endFill=0;" edge="1" parent="1" source="jOhEWSTDvMmX5hS_NLos-6" target="jOhEWSTDvMmX5hS_NLos-7">
          <mxGeometry relative="1" as="geometry" />
        </mxCell>
        <mxCell id="jOhEWSTDvMmX5hS_NLos-6" value="$$\text{X}$$" style="whiteSpace=wrap;html=1;aspect=fixed;" vertex="1" parent="1">
          <mxGeometry x="390" y="360" width="30" height="30" as="geometry" />
        </mxCell>
        <mxCell id="jOhEWSTDvMmX5hS_NLos-7" value="$$\text{Z}$$" style="whiteSpace=wrap;html=1;aspect=fixed;" vertex="1" parent="1">
          <mxGeometry x="440" y="360" width="30" height="30" as="geometry" />
        </mxCell>
        <mxCell id="jOhEWSTDvMmX5hS_NLos-8" value="" style="endArrow=none;html=1;rounded=0;shape=link;exitX=0.5;exitY=0;exitDx=0;exitDy=0;entryX=0.5;entryY=1;entryDx=0;entryDy=0;" edge="1" parent="1" source="jOhEWSTDvMmX5hS_NLos-6" target="jOhEWSTDvMmX5hS_NLos-3">
          <mxGeometry width="50" height="50" relative="1" as="geometry">
            <mxPoint x="350" y="274.75" as="sourcePoint" />
            <mxPoint x="410" y="275.25" as="targetPoint" />
          </mxGeometry>
        </mxCell>
        <mxCell id="jOhEWSTDvMmX5hS_NLos-9" value="" style="ellipse;whiteSpace=wrap;html=1;aspect=fixed;fillStyle=solid;fillColor=#000000;" vertex="1" parent="1">
          <mxGeometry x="450" y="320" width="10" height="10" as="geometry" />
        </mxCell>
        <mxCell id="jOhEWSTDvMmX5hS_NLos-13" value="" style="ellipse;whiteSpace=wrap;html=1;aspect=fixed;fillStyle=solid;fillColor=#000000;" vertex="1" parent="1">
          <mxGeometry x="190" y="340" width="10" height="10" as="geometry" />
        </mxCell>
        <mxCell id="jOhEWSTDvMmX5hS_NLos-15" value="" style="endArrow=none;html=1;rounded=0;exitX=1;exitY=0;exitDx=0;exitDy=0;entryX=-0.011;entryY=0.725;entryDx=0;entryDy=0;entryPerimeter=0;" edge="1" parent="1" source="jOhEWSTDvMmX5hS_NLos-13" target="-SVIE4Chyfj7H1_he72M-1">
          <mxGeometry width="50" height="50" relative="1" as="geometry">
            <mxPoint x="90" y="370" as="sourcePoint" />
            <mxPoint x="200" y="320" as="targetPoint" />
            <Array as="points">
              <mxPoint x="220" y="320" />
            </Array>
          </mxGeometry>
        </mxCell>
        <mxCell id="jOhEWSTDvMmX5hS_NLos-16" value="" style="endArrow=none;html=1;rounded=0;exitX=1;exitY=1;exitDx=0;exitDy=0;entryX=0;entryY=0.5;entryDx=0;entryDy=0;" edge="1" parent="1" source="jOhEWSTDvMmX5hS_NLos-13" target="jOhEWSTDvMmX5hS_NLos-6">
          <mxGeometry width="50" height="50" relative="1" as="geometry">
            <mxPoint x="190" y="360" as="sourcePoint" />
            <mxPoint x="270" y="380" as="targetPoint" />
            <Array as="points">
              <mxPoint x="220" y="375" />
            </Array>
          </mxGeometry>
        </mxCell>
        <mxCell id="jOhEWSTDvMmX5hS_NLos-17" value="$$\ket{\psi}$$" style="text;html=1;align=center;verticalAlign=middle;whiteSpace=wrap;rounded=0;" vertex="1" parent="1">
          <mxGeometry x="190" y="255" width="20" height="20" as="geometry" />
        </mxCell>
        <mxCell id="jOhEWSTDvMmX5hS_NLos-19" value="" style="endArrow=none;html=1;rounded=0;entryX=0;entryY=0.25;entryDx=0;entryDy=0;" edge="1" parent="1" target="-SVIE4Chyfj7H1_he72M-1">
          <mxGeometry width="50" height="50" relative="1" as="geometry">
            <mxPoint x="210" y="268" as="sourcePoint" />
            <mxPoint x="270" y="268" as="targetPoint" />
          </mxGeometry>
        </mxCell>
        <mxCell id="jOhEWSTDvMmX5hS_NLos-20" value="$$a$$" style="text;html=1;align=center;verticalAlign=middle;whiteSpace=wrap;rounded=0;" vertex="1" parent="1">
          <mxGeometry x="360" y="240" width="30" height="30" as="geometry" />
        </mxCell>
        <mxCell id="jOhEWSTDvMmX5hS_NLos-21" value="$$b$$" style="text;html=1;align=center;verticalAlign=middle;whiteSpace=wrap;rounded=0;" vertex="1" parent="1">
          <mxGeometry x="360" y="300" width="30" height="30" as="geometry" />
        </mxCell>
        <mxCell id="jOhEWSTDvMmX5hS_NLos-22" value="" style="endArrow=none;html=1;rounded=0;shape=link;exitX=0.5;exitY=0;exitDx=0;exitDy=0;entryX=0.5;entryY=1;entryDx=0;entryDy=0;" edge="1" parent="1" source="jOhEWSTDvMmX5hS_NLos-7" target="jOhEWSTDvMmX5hS_NLos-9">
          <mxGeometry width="50" height="50" relative="1" as="geometry">
            <mxPoint x="454.88" y="420" as="sourcePoint" />
            <mxPoint x="450" y="340" as="targetPoint" />
          </mxGeometry>
        </mxCell>
        <mxCell id="jOhEWSTDvMmX5hS_NLos-23" style="edgeStyle=orthogonalEdgeStyle;rounded=0;orthogonalLoop=1;jettySize=auto;html=1;exitX=1;exitY=0.5;exitDx=0;exitDy=0;endArrow=none;endFill=0;" edge="1" parent="1">
          <mxGeometry relative="1" as="geometry">
            <mxPoint x="470" y="374.88" as="sourcePoint" />
            <mxPoint x="500" y="375" as="targetPoint" />
          </mxGeometry>
        </mxCell>
        <mxCell id="jOhEWSTDvMmX5hS_NLos-25" value="$$\ket{\psi}$$" style="text;html=1;align=center;verticalAlign=middle;whiteSpace=wrap;rounded=0;" vertex="1" parent="1">
          <mxGeometry x="500" y="365" width="20" height="20" as="geometry" />
        </mxCell>
      </root>
    </mxGraphModel>
  </diagram>
</mxfile>
